<svg width="272" height="66" viewBox="0 0 272 66" fill="none" xmlns="http://www.w3.org/2000/svg">
<path d="M25.6997 0.816895H28.2651C35.1294 0.816895 40.2603 2.4694 43.6577 5.77441C46.7778 8.80208 48.3379 13.0894 48.3379 18.6362C48.3379 23.5591 46.7201 27.5228 43.4844 30.5273C40.0407 33.7168 35.2912 35.3115 29.2358 35.3115H25.6997V0.816895ZM0.808105 0.816895H19.4595V47.9307H0.808105V0.816895ZM80.9604 0.816895H84.0806C92.5858 0.816895 97.6589 3.69434 99.2998 9.44922C99.8545 11.3444 100.132 13.5169 100.132 15.9668V48H80.9604V0.816895ZM55.3755 15.9668C55.3755 10.859 56.5426 7.11491 58.877 4.73438C61.4424 2.12272 65.6257 0.816895 71.4268 0.816895H74.5469V48H55.3755V15.9668ZM152.654 15.4814C152.654 22.4613 149.603 27.049 143.501 29.2446C146.922 30.5158 149.499 32.5843 151.232 35.4502C152.735 37.9925 153.486 40.9508 153.486 44.3252V48H132.824V0.747559H134.626C140.728 0.747559 145.223 1.90316 148.112 4.21436C151.14 6.64111 152.654 10.3968 152.654 15.4814ZM108.417 0.816895H127.069V48H108.417V0.816895ZM203.165 0.816895H218.696V20.4043H214.813C212.271 20.4043 210.399 20.1385 209.197 19.6069C207.995 19.0522 207.048 18.4398 206.354 17.7695C205.684 17.0762 205.106 16.1748 204.621 15.0654C203.65 12.8005 203.165 9.65723 203.165 5.63574V0.816895ZM180.735 0.816895H199.386V48H180.735V0.816895ZM161.321 0.816895H176.852V5.63574C176.852 11.5755 175.777 15.6201 173.628 17.7695C171.871 19.526 169.063 20.4043 165.204 20.4043H161.321V0.816895ZM271.184 49.2827C271.184 60.2147 265.694 65.6807 254.716 65.6807H252.567V0.816895H271.184V49.2827ZM227.017 0.816895H246.188V48H243.068C234.563 48 229.49 45.111 227.849 39.333C227.294 37.4609 227.017 35.3 227.017 32.8501V0.816895Z" fill="url(#paint0_linear)"/>
<defs>
<linearGradient id="paint0_linear" x1="-2" y1="22" x2="255.659" y2="22" gradientUnits="userSpaceOnUse">
<stop stop-color="#0085FF"/>
<stop offset="1" stop-color="#FF00F5"/>
</linearGradient>
</defs>
</svg>
